<?xml version="1.0" encoding="utf-8"?>
<!-- Generator: Adobe Illustrator 16.0.0, SVG Export Plug-In . SVG Version: 6.00 Build 0)  -->
<!DOCTYPE svg PUBLIC "-//W3C//DTD SVG 1.1//EN" "http://www.w3.org/Graphics/SVG/1.1/DTD/svg11.dtd" [
	<!ENTITY ns_flows "http://ns.adobe.com/Flows/1.0/">
	<!ENTITY ns_extend "http://ns.adobe.com/Extensibility/1.0/">
	<!ENTITY ns_ai "http://ns.adobe.com/AdobeIllustrator/10.0/">
	<!ENTITY ns_graphs "http://ns.adobe.com/Graphs/1.0/">
]>
<svg version="1.1" xmlns:x="&ns_extend;" xmlns:i="&ns_ai;" xmlns:graph="&ns_graphs;"
	 xmlns="http://www.w3.org/2000/svg" xmlns:xlink="http://www.w3.org/1999/xlink" xmlns:a="http://ns.adobe.com/AdobeSVGViewerExtensions/3.0/"
	 x="0px" y="0px" width="410px" height="300px" viewBox="0 0 410 300" enable-background="new 0 0 410 300" xml:space="preserve">
<g id="map">
</g>
<g id="Layer_3">
	<polyline fill="none" stroke="#EC2327" stroke-miterlimit="10" points="31.8,257.322 37.634,269.913 203.354,266.535 	"/>
</g>
<g id="Layer_4">
	<polyline fill="none" stroke="#3954A4" stroke-miterlimit="10" points="203.354,257.322 41.95,263.157 41.012,258 	"/>
</g>
<g id="Layer_5">
	<polyline fill="none" stroke="#EC2327" stroke-miterlimit="10" points="252.483,266.535 379.481,256.217 379.481,239.333 	"/>
</g>
<g id="Layer_6">
	<polyline fill="none" stroke="#3954A4" stroke-miterlimit="10" points="252.483,257.322 370.269,247.003 370.269,240.401 	"/>
</g>
<g id="Layer_7">
	<polyline fill="none" stroke="#EC2327" stroke-miterlimit="10" points="358.066,76.585 379.481,76.585 379.481,191.212 	"/>
</g>
<g id="Layer_8">
	<polyline fill="none" stroke="#3954A4" stroke-miterlimit="10" points="358.066,85.798 370.269,85.798 370.269,191.212 	"/>
</g>
<g id="Layer_9">
	<line fill="none" stroke="#3954A4" stroke-miterlimit="10" x1="91.079" y1="43.447" x2="309.903" y2="85.798"/>
</g>
<g id="Layer_10">
	<line fill="none" stroke="#EC2327" stroke-miterlimit="10" x1="91.079" y1="34.367" x2="309.903" y2="76.585"/>
</g>
<g id="Layer_11">
	<polyline fill="none" stroke="#3954A4" stroke-miterlimit="10" points="41.014,209.929 28.421,43.58 41.95,43.58 	"/>
</g>
<g id="Layer_1">
	<g>
		<g>
			<g>
				<path fill="#8DC63F" d="M250.943,248.831c0.884,0,1.6,0.709,1.6,1.584v23.026c0,0.874-0.716,1.584-1.6,1.584h-45.989
					c-0.883,0-1.6-0.71-1.6-1.584v-23.026c0-0.875,0.716-1.584,1.6-1.584H250.943z"/>
				<rect x="211.526" y="248.831" fill="#FFF200" width="9.5" height="26.195"/>
				<rect x="234.837" y="248.831" fill="#FFF200" width="9.5" height="26.195"/>
				<g>
					<rect x="213.939" y="250.016" fill="none" width="5.553" height="23.825"/>
					<text transform="matrix(-4.371139e-008 -1 1 -4.371139e-008 215.7773 268.8965)"><tspan x="0" y="0" fill="#414042" font-family="'Roboto-Light'" font-size="2.4116">40 CH DMUX</tspan><tspan x="0.855" y="2.894" fill="#414042" font-family="'Roboto-Light'" font-size="2.4116">40 CH WSS</tspan></text>
				</g>
				<g>
					<rect x="225.339" y="250.016" fill="none" width="5.553" height="23.825"/>
					<text transform="matrix(-4.371139e-008 -1 1 -4.371139e-008 227.1768 265.5771)"><tspan x="0" y="0" fill="#FFFFFF" font-family="'Roboto-Light'" font-size="2.4116">Shelf 1</tspan><tspan x="0.307" y="2.895" fill="#FFFFFF" font-family="'Roboto-Light'" font-size="2.4116">15454</tspan></text>
				</g>
				<g>
					<rect x="237.176" y="250.016" fill="none" width="5.553" height="23.825"/>
					<text transform="matrix(-4.371139e-008 -1 1 -4.371139e-008 239.0137 268.8965)"><tspan x="0" y="0" fill="#414042" font-family="'Roboto-Light'" font-size="2.4116">40 CH DMUX</tspan><tspan x="0.855" y="2.894" fill="#414042" font-family="'Roboto-Light'" font-size="2.4116">40 CH WSS</tspan></text>
				</g>
			</g>
			<g>
				<polygon fill="#EC2327" points="209.34,269.913 209.34,263.157 203.354,266.535 				"/>
				<polygon fill="#3954A4" points="203.354,253.943 203.354,260.699 209.342,257.322 				"/>
			</g>
			<g>
				<polygon fill="#EC2327" points="252.637,269.913 252.637,263.157 246.647,266.535 				"/>
				<polygon fill="#F0676A" points="246.647,253.943 246.647,260.699 252.638,257.322 				"/>
			</g>
		</g>
		<polygon fill="#3954A4" points="246.496,253.943 246.496,260.699 252.483,257.322 		"/>
	</g>
	<g>
		<g>
			<g>
				<path fill="#8DC63F" d="M387.972,238.802c0,0.882-0.709,1.6-1.583,1.6h-23.026c-0.873,0-1.584-0.717-1.584-1.6v-45.99
					c0-0.883,0.711-1.6,1.584-1.6h23.026c0.875,0,1.583,0.716,1.583,1.6V238.802z"/>
				<rect x="361.777" y="199.383" fill="#FFF200" width="26.194" height="9.5"/>
				<rect x="361.777" y="222.695" fill="#FFF200" width="26.194" height="9.5"/>
				<g>
					<rect x="362.963" y="201.797" fill="none" width="23.823" height="5.553"/>
					<text transform="matrix(1 0 0 1 367.9063 203.6348)"><tspan x="0" y="0" fill="#414042" font-family="'Roboto-Light'" font-size="2.4116">40 CH DMUX</tspan><tspan x="0.855" y="2.894" fill="#414042" font-family="'Roboto-Light'" font-size="2.4116">40 CH WSS</tspan></text>
				</g>
				<g>
					<rect x="362.963" y="213.197" fill="none" width="23.823" height="5.553"/>
					<text transform="matrix(1 0 0 1 371.2256 215.0342)"><tspan x="0" y="0" fill="#FFFFFF" font-family="'Roboto-Light'" font-size="2.4116">Shelf 1</tspan><tspan x="0.308" y="2.894" fill="#FFFFFF" font-family="'Roboto-Light'" font-size="2.4116">15454</tspan></text>
				</g>
				<g>
					<rect x="362.963" y="225.034" fill="none" width="23.823" height="5.552"/>
					<text transform="matrix(1 0 0 1 367.9063 226.8711)"><tspan x="0" y="0" fill="#414042" font-family="'Roboto-Light'" font-size="2.4116">40 CH DMUX</tspan><tspan x="0.855" y="2.894" fill="#414042" font-family="'Roboto-Light'" font-size="2.4116">40 CH WSS</tspan></text>
				</g>
			</g>
			<g>
				<polygon fill="#3954A4" points="366.891,197.198 373.646,197.198 370.268,191.212 				"/>
			</g>
			<g>
				<polygon fill="#3954A4" points="366.891,240.495 373.646,240.495 370.268,234.505 				"/>
				<polygon fill="#F0676A" points="382.859,234.505 376.104,234.505 379.481,240.497 				"/>
			</g>
		</g>
		<polygon fill="#EC2327" points="382.859,234.353 376.104,234.353 379.481,240.341 		"/>
	</g>
	<g>
		<g>
			<g>
				<path fill="#8DC63F" d="M356.527,68.095c0.883,0,1.599,0.709,1.599,1.584v23.026c0,0.874-0.716,1.583-1.599,1.583h-45.99
					c-0.883,0-1.6-0.71-1.6-1.583V69.679c0-0.875,0.717-1.584,1.6-1.584H356.527z"/>
				<rect x="317.109" y="68.095" fill="#FFF200" width="9.5" height="26.194"/>
				<rect x="340.42" y="68.095" fill="#FFF200" width="9.501" height="26.194"/>
				<g>
					<rect x="319.523" y="69.281" fill="none" width="5.553" height="23.824"/>
					<text transform="matrix(-4.371139e-008 -1 1 -4.371139e-008 321.3604 88.1602)"><tspan x="0" y="0" fill="#414042" font-family="'Roboto-Light'" font-size="2.4116">40 CH DMUX</tspan><tspan x="0.855" y="2.895" fill="#414042" font-family="'Roboto-Light'" font-size="2.4116">40 CH WSS</tspan></text>
				</g>
				<g>
					<rect x="330.923" y="69.281" fill="none" width="5.553" height="23.824"/>
					<text transform="matrix(-4.371139e-008 -1 1 -4.371139e-008 332.7598 84.8408)"><tspan x="0" y="0" fill="#FFFFFF" font-family="'Roboto-Light'" font-size="2.4116">Shelf 1</tspan><tspan x="0.307" y="2.895" fill="#FFFFFF" font-family="'Roboto-Light'" font-size="2.4116">15454</tspan></text>
				</g>
				<g>
					<rect x="342.76" y="69.281" fill="none" width="5.553" height="23.824"/>
					<text transform="matrix(-4.371139e-008 -1 1 -4.371139e-008 344.5967 88.1602)"><tspan x="0" y="0" fill="#414042" font-family="'Roboto-Light'" font-size="2.4116">40 CH DMUX</tspan><tspan x="0.855" y="2.895" fill="#414042" font-family="'Roboto-Light'" font-size="2.4116">40 CH WSS</tspan></text>
				</g>
			</g>
			<g>
				<polygon fill="#3954A4" points="314.924,89.176 314.924,82.42 308.938,85.798 				"/>
				<polygon fill="#EC2327" points="308.938,73.208 308.938,79.963 314.925,76.585 				"/>
			</g>
			<g>
				<polygon fill="#F0676A" points="352.231,73.208 352.231,79.963 358.221,76.585 				"/>
			</g>
		</g>
		<polygon fill="#EC2327" points="352.079,73.208 352.079,79.963 358.066,76.585 		"/>
	</g>
	<g>
		<g>
			<g>
				<path fill="#8DC63F" d="M89.54,25.876c0.883,0,1.6,0.709,1.6,1.583v23.026c0,0.874-0.716,1.584-1.6,1.584H43.55
					c-0.884,0-1.6-0.71-1.6-1.584V27.46c0-0.875,0.716-1.583,1.6-1.583H89.54z"/>
				<rect x="50.122" y="25.876" fill="#FFF200" width="9.5" height="26.194"/>
				<rect x="73.433" y="25.876" fill="#FFF200" width="9.5" height="26.194"/>
				<g>
					<rect x="52.536" y="27.062" fill="none" width="5.552" height="23.824"/>
					<text transform="matrix(-4.371139e-008 -1 1 -4.371139e-008 54.373 45.9419)"><tspan x="0" y="0" fill="#414042" font-family="'Roboto-Light'" font-size="2.4116">40 CH DMUX</tspan><tspan x="0.855" y="2.895" fill="#414042" font-family="'Roboto-Light'" font-size="2.4116">40 CH WSS</tspan></text>
				</g>
				<g>
					<rect x="63.935" y="27.062" fill="none" width="5.552" height="23.824"/>
					<text transform="matrix(-4.371139e-008 -1 1 -4.371139e-008 65.7725 42.6226)"><tspan x="0" y="0" fill="#FFFFFF" font-family="'Roboto-Light'" font-size="2.4116">Shelf 1</tspan><tspan x="0.308" y="2.894" fill="#FFFFFF" font-family="'Roboto-Light'" font-size="2.4116">15454</tspan></text>
				</g>
				<g>
					<rect x="75.772" y="27.062" fill="none" width="5.553" height="23.824"/>
					<text transform="matrix(-4.371139e-008 -1 1 -4.371139e-008 77.6094 45.9419)"><tspan x="0" y="0" fill="#414042" font-family="'Roboto-Light'" font-size="2.4116">40 CH DMUX</tspan><tspan x="0.855" y="2.895" fill="#414042" font-family="'Roboto-Light'" font-size="2.4116">40 CH WSS</tspan></text>
				</g>
			</g>
			<g>
				<polygon fill="#3954A4" points="47.736,46.958 47.736,40.202 41.75,43.58 				"/>
				<polygon fill="#EC2327" points="41.75,30.989 41.75,37.745 47.737,34.367 				"/>
			</g>
			<g>
				<polygon fill="#3954A4" points="91.233,46.958 91.233,40.202 85.244,43.58 				"/>
				<polygon fill="#F0676A" points="85.244,30.989 85.244,37.745 91.234,34.367 				"/>
			</g>
		</g>
		<polygon fill="#EC2327" points="85.091,30.989 85.091,37.745 91.079,34.367 		"/>
	</g>
	<g>
		<g>
			<g>
				<path fill="#8DC63F" d="M49.503,257.519c0,0.883-0.709,1.6-1.583,1.6H24.894c-0.875,0-1.584-0.716-1.584-1.6v-45.989
					c0-0.884,0.709-1.601,1.584-1.601H47.92c0.874,0,1.583,0.717,1.583,1.601V257.519z"/>
				<rect x="23.31" y="218.101" fill="#FFF200" width="26.193" height="9.5"/>
				<rect x="23.31" y="241.412" fill="#FFF200" width="26.193" height="9.5"/>
				<g>
					<rect x="24.495" y="220.515" fill="none" width="23.821" height="5.552"/>
					<text transform="matrix(1 0 0 1 29.438 222.3521)"><tspan x="0" y="0" fill="#414042" font-family="'Roboto-Light'" font-size="2.4116">40 CH DMUX</tspan><tspan x="0.855" y="2.894" fill="#414042" font-family="'Roboto-Light'" font-size="2.4116">40 CH WSS</tspan></text>
				</g>
				<g>
					<rect x="24.495" y="231.915" fill="none" width="23.821" height="5.552"/>
					<text transform="matrix(1 0 0 1 32.7573 233.7515)"><tspan x="0" y="0" fill="#FFFFFF" font-family="'Roboto-Light'" font-size="2.4116">Shelf 1</tspan><tspan x="0.307" y="2.894" fill="#FFFFFF" font-family="'Roboto-Light'" font-size="2.4116">15454</tspan></text>
				</g>
				<g>
					<rect x="24.495" y="243.751" fill="none" width="23.821" height="5.552"/>
					<text transform="matrix(1 0 0 1 29.438 245.5889)"><tspan x="0" y="0" fill="#414042" font-family="'Roboto-Light'" font-size="2.4116">40 CH DMUX</tspan><tspan x="0.855" y="2.894" fill="#414042" font-family="'Roboto-Light'" font-size="2.4116">40 CH WSS</tspan></text>
				</g>
			</g>
			<g>
				<g>
					<polygon fill="#EC2327" points="28.421,215.916 35.179,215.916 31.801,209.929 					"/>
					<polygon fill="#3954A4" points="44.39,209.929 37.634,209.929 41.014,215.917 					"/>
				</g>
			</g>
		</g>
	</g>
	<path fill="#FFF100" d="M46.856,12.709"/>
	<polyline fill="none" stroke="#EC2327" stroke-miterlimit="10" points="31.801,209.929 16.432,34.367 41.95,34.367 	"/>
	<g>
		<rect x="37.935" y="57.458" fill="none" width="53.145" height="15.749"/>
		<text transform="matrix(1 0 0 1 41.8711 59.5342)"><tspan x="0" y="0" fill="#414042" font-family="'Roboto-Light'" font-size="2.724">IM Data Center - ALPRGAAAN001001 </tspan><tspan x="10.575" y="3.269" fill="#414042" font-family="'Roboto-Light'" font-size="2.724">Winwa</tspan><tspan x="18.675" y="3.269" fill="#414042" font-family="'Roboto-Light'" font-size="2.724">r</tspan><tspan x="19.577" y="3.269" fill="#414042" font-family="'Roboto-Light'" font-size="2.724">d Concourse</tspan><tspan x="9.841" y="6.538" fill="#414042" font-family="'Roboto-Light'" font-size="2.724">Alpha</tspan><tspan x="16.657" y="6.538" fill="#414042" font-family="'Roboto-Light'" font-size="2.724">r</tspan><tspan x="17.56" y="6.538" fill="#414042" font-family="'Roboto-Light'" font-size="2.724">etta, GA 30005</tspan><tspan x="9.064" y="9.806" fill="#414042" font-family="'Roboto-Light'" font-size="2.724">Site ID: IMLEUSGA100</tspan><tspan x="6.571" y="13.075" fill="#414042" font-family="'Roboto-Light'" font-size="2.724">CLLI Code: ALPRGAAAN00</tspan></text>
	</g>
	<g>
		<rect x="309.903" y="98.924" fill="none" width="53.145" height="15.749"/>
		<text transform="matrix(1 0 0 1 314.1777 101)"><tspan x="0" y="0" fill="#414042" font-family="'Roboto-Light'" font-size="2.724">A</tspan><tspan x="1.529" y="0" fill="#414042" font-family="'Roboto-Light'" font-size="2.724">T&amp;T SE </tspan><tspan x="10.964" y="0" fill="#414042" font-family="'Roboto-Light'" font-size="2.724">A</tspan><tspan x="12.642" y="0" fill="#414042" font-family="'Roboto-Light'" font-size="2.724">tlanta CO - </tspan><tspan x="25.86" y="0" fill="#414042" font-family="'Roboto-Light'" font-size="2.724">A</tspan><tspan x="27.391" y="0" fill="#414042" font-family="'Roboto-Light'" font-size="2.724">TLNG</tspan><tspan x="34.236" y="0" fill="#414042" font-family="'Roboto-Light'" font-size="2.724">A</tspan><tspan x="35.923" y="0" fill="#414042" font-family="'Roboto-Light'" font-size="2.724">CSX</tspan><tspan x="40.977" y="0" fill="#414042" font-family="'Roboto-Light'" font-size="2.724">H</tspan><tspan x="42.925" y="0" fill="#414042" font-family="'Roboto-Light'" font-size="2.724">X</tspan><tspan x="10.625" y="3.269" fill="#414042" font-family="'Roboto-Light'" font-size="2.724">70 Cou</tspan><tspan x="19.164" y="3.269" fill="#414042" font-family="'Roboto-Light'" font-size="2.724">r</tspan><tspan x="20.134" y="3.269" fill="#414042" font-family="'Roboto-Light'" font-size="2.724">tland St</tspan><tspan x="29.357" y="3.269" fill="#414042" font-family="'Roboto-Light'" font-size="2.724">r</tspan><tspan x="30.259" y="3.269" fill="#414042" font-family="'Roboto-Light'" font-size="2.724">eet</tspan><tspan x="11.464" y="6.538" fill="#414042" font-family="'Roboto-Light'" font-size="2.724">A</tspan><tspan x="13.143" y="6.538" fill="#414042" font-family="'Roboto-Light'" font-size="2.724">tlanta, GA 30303</tspan><tspan x="8.727" y="9.806" fill="#414042" font-family="'Roboto-Light'" font-size="2.724">Site ID: IMLEUSGA200</tspan><tspan x="6.211" y="13.075" fill="#414042" font-family="'Roboto-Light'" font-size="2.724">CLLI Code: </tspan><tspan x="19.649" y="13.075" fill="#414042" font-family="'Roboto-Light'" font-size="2.724">A</tspan><tspan x="21.179" y="13.075" fill="#414042" font-family="'Roboto-Light'" font-size="2.724">TLNG</tspan><tspan x="28.024" y="13.075" fill="#414042" font-family="'Roboto-Light'" font-size="2.724">A</tspan><tspan x="29.711" y="13.075" fill="#414042" font-family="'Roboto-Light'" font-size="2.724">CSX</tspan><tspan x="34.766" y="13.075" fill="#414042" font-family="'Roboto-Light'" font-size="2.724">H</tspan><tspan x="36.714" y="13.075" fill="#414042" font-family="'Roboto-Light'" font-size="2.724">X</tspan></text>
	</g>
	<g>
		<rect x="309.903" y="207.884" fill="none" width="50.074" height="15.749"/>
		<text transform="matrix(1 0 0 1 315.5313 209.96)"><tspan x="0" y="0" fill="#414042" font-family="'Roboto-Light'" font-size="2.724">A</tspan><tspan x="1.529" y="0" fill="#414042" font-family="'Roboto-Light'" font-size="2.724">T&amp;T </tspan><tspan x="7.095" y="0" fill="#414042" font-family="'Roboto-Light'" font-size="2.724">A</tspan><tspan x="8.772" y="0" fill="#414042" font-family="'Roboto-Light'" font-size="2.724">tlanta POP - </tspan><tspan x="23.615" y="0" fill="#414042" font-family="'Roboto-Light'" font-size="2.724">A</tspan><tspan x="25.145" y="0" fill="#414042" font-family="'Roboto-Light'" font-size="2.724">TLNG</tspan><tspan x="31.99" y="0" fill="#414042" font-family="'Roboto-Light'" font-size="2.724">A</tspan><tspan x="33.521" y="0" fill="#414042" font-family="'Roboto-Light'" font-size="2.724">T</tspan><tspan x="35.134" y="0" fill="#414042" font-family="'Roboto-Light'" font-size="2.724">L</tspan><tspan x="36.378" y="0" fill="#414042" font-family="'Roboto-Light'" font-size="2.724">W</tspan><tspan x="1.014" y="3.269" fill="#414042" font-family="'Roboto-Light'" font-size="2.724">4951 </tspan><tspan x="7.715" y="3.269" fill="#414042" font-family="'Roboto-Light'" font-size="2.724">P</tspan><tspan x="9.383" y="3.269" fill="#414042" font-family="'Roboto-Light'" font-size="2.724">eacht</tspan><tspan x="16.082" y="3.269" fill="#414042" font-family="'Roboto-Light'" font-size="2.724">r</tspan><tspan x="16.984" y="3.269" fill="#414042" font-family="'Roboto-Light'" font-size="2.724">ee Center </tspan><tspan x="29.017" y="3.269" fill="#414042" font-family="'Roboto-Light'" font-size="2.724">A</tspan><tspan x="30.651" y="3.269" fill="#414042" font-family="'Roboto-Light'" font-size="2.724">v</tspan><tspan x="31.967" y="3.269" fill="#414042" font-family="'Roboto-Light'" font-size="2.724">enue</tspan><tspan x="8.575" y="6.538" fill="#414042" font-family="'Roboto-Light'" font-size="2.724">A</tspan><tspan x="10.254" y="6.538" fill="#414042" font-family="'Roboto-Light'" font-size="2.724">tlanta, GA 30303</tspan><tspan x="5.838" y="9.806" fill="#414042" font-family="'Roboto-Light'" font-size="2.724">Site ID: IMLEUSGA005</tspan><tspan x="3.579" y="13.075" fill="#414042" font-family="'Roboto-Light'" font-size="2.724">CLLI Code: </tspan><tspan x="17.017" y="13.075" fill="#414042" font-family="'Roboto-Light'" font-size="2.724">A</tspan><tspan x="18.547" y="13.075" fill="#414042" font-family="'Roboto-Light'" font-size="2.724">TLNG</tspan><tspan x="25.393" y="13.075" fill="#414042" font-family="'Roboto-Light'" font-size="2.724">A</tspan><tspan x="26.922" y="13.075" fill="#414042" font-family="'Roboto-Light'" font-size="2.724">T</tspan><tspan x="28.535" y="13.075" fill="#414042" font-family="'Roboto-Light'" font-size="2.724">L</tspan><tspan x="29.78" y="13.075" fill="#414042" font-family="'Roboto-Light'" font-size="2.724">W49</tspan></text>
	</g>
	<g>
		<rect x="201.852" y="229.676" fill="none" width="50.074" height="15.749"/>
		<text transform="matrix(1 0 0 1 205.0869 231.752)"><tspan x="0" y="0" fill="#414042" font-family="'Roboto-Light'" font-size="2.724">A</tspan><tspan x="1.53" y="0" fill="#414042" font-family="'Roboto-Light'" font-size="2.724">T&amp;T </tspan><tspan x="7.095" y="0" fill="#414042" font-family="'Roboto-Light'" font-size="2.724">A</tspan><tspan x="8.773" y="0" fill="#414042" font-family="'Roboto-Light'" font-size="2.724">tlanta POP - </tspan><tspan x="23.615" y="0" fill="#414042" font-family="'Roboto-Light'" font-size="2.724">A</tspan><tspan x="25.146" y="0" fill="#414042" font-family="'Roboto-Light'" font-size="2.724">TLNGANWW01</tspan><tspan x="9.774" y="3.269" fill="#414042" font-family="'Roboto-Light'" font-size="2.724">3001 Cobb </tspan><tspan x="23.59" y="3.269" fill="#414042" font-family="'Roboto-Light'" font-size="2.724">P</tspan><tspan x="25.26" y="3.269" fill="#414042" font-family="'Roboto-Light'" font-size="2.724">arkw</tspan><tspan x="31.051" y="3.269" fill="#414042" font-family="'Roboto-Light'" font-size="2.724">a</tspan><tspan x="32.495" y="3.269" fill="#414042" font-family="'Roboto-Light'" font-size="2.724">y</tspan><tspan x="11.008" y="6.538" fill="#414042" font-family="'Roboto-Light'" font-size="2.724">A</tspan><tspan x="12.687" y="6.538" fill="#414042" font-family="'Roboto-Light'" font-size="2.724">tlanta, GA 30339</tspan><tspan x="8.23" y="9.806" fill="#414042" font-family="'Roboto-Light'" font-size="2.724">Site ID: IMLEUSGA008</tspan><tspan x="5.089" y="13.075" fill="#414042" font-family="'Roboto-Light'" font-size="2.724">CLLI Code: </tspan><tspan x="18.527" y="13.075" fill="#414042" font-family="'Roboto-Light'" font-size="2.724">A</tspan><tspan x="20.057" y="13.075" fill="#414042" font-family="'Roboto-Light'" font-size="2.724">TLNGANWW01</tspan></text>
	</g>
	<g>
		<rect x="51.594" y="226.816" fill="none" width="50.074" height="15.749"/>
		<text transform="matrix(1 0 0 1 53.1895 228.8916)"><tspan x="0" y="0" fill="#414042" font-family="'Roboto-Light'" font-size="2.724">A</tspan><tspan x="1.53" y="0" fill="#414042" font-family="'Roboto-Light'" font-size="2.724">T&amp;T SE Marietta CO - S</tspan><tspan x="28.995" y="0" fill="#414042" font-family="'Roboto-Light'" font-size="2.724">M</tspan><tspan x="31.318" y="0" fill="#414042" font-family="'Roboto-Light'" font-size="2.724">YRGAP</tspan><tspan x="40.016" y="0" fill="#414042" font-family="'Roboto-Light'" font-size="2.724">F</tspan><tspan x="41.235" y="0" fill="#414042" font-family="'Roboto-Light'" font-size="2.724">JMD</tspan><tspan x="8.724" y="3.269" fill="#414042" font-family="'Roboto-Light'" font-size="2.724">1732 </tspan><tspan x="15.426" y="3.269" fill="#414042" font-family="'Roboto-Light'" font-size="2.724">P</tspan><tspan x="17.094" y="3.269" fill="#414042" font-family="'Roboto-Light'" font-size="2.724">owers </tspan><tspan x="25.052" y="3.269" fill="#414042" font-family="'Roboto-Light'" font-size="2.724">F</tspan><tspan x="26.594" y="3.269" fill="#414042" font-family="'Roboto-Light'" font-size="2.724">er</tspan><tspan x="28.925" y="3.269" fill="#414042" font-family="'Roboto-Light'" font-size="2.724">r</tspan><tspan x="29.876" y="3.269" fill="#414042" font-family="'Roboto-Light'" font-size="2.724">y Road</tspan><tspan x="11.86" y="6.538" fill="#414042" font-family="'Roboto-Light'" font-size="2.724">Marietta, GA 30067</tspan><tspan x="9.909" y="9.806" fill="#414042" font-family="'Roboto-Light'" font-size="2.724">Site ID: IMLEUSGA201</tspan><tspan x="3.925" y="13.075" fill="#414042" font-family="'Roboto-Light'" font-size="2.724">CLLI Code: S</tspan><tspan x="19" y="13.075" fill="#414042" font-family="'Roboto-Light'" font-size="2.724">M</tspan><tspan x="21.324" y="13.075" fill="#414042" font-family="'Roboto-Light'" font-size="2.724">YRGAP</tspan><tspan x="30.021" y="13.075" fill="#414042" font-family="'Roboto-Light'" font-size="2.724">F</tspan><tspan x="31.241" y="13.075" fill="#414042" font-family="'Roboto-Light'" font-size="2.724">JMDShelf</tspan></text>
	</g>
	<rect x="47.028" y="6" fill="#8DC63F" width="18.857" height="18.565"/>
	<g>
		<rect x="51.754" y="10.304" fill="none" width="9.557" height="9.958"/>
		<text transform="matrix(1 0 0 1 52.0737 12.5503)"><tspan x="0" y="0" fill="#FFFFFF" font-family="'Roboto-Light'" font-size="2.9469">Shelf 2</tspan><tspan x="0.375" y="3.536" fill="#FFFFFF" font-family="'Roboto-Light'" font-size="2.9469">15454</tspan><tspan x="2.825" y="7.073" fill="#FFFFFF" font-family="'Roboto-Light'" font-size="2.9469">21</tspan></text>
	</g>
	<rect x="323.415" y="48.009" fill="#8DC63F" width="18.857" height="18.565"/>
	<g>
		<rect x="328.141" y="52.314" fill="none" width="9.558" height="9.958"/>
		<text transform="matrix(1 0 0 1 328.4609 54.5591)"><tspan x="0" y="0" fill="#FFFFFF" font-family="'Roboto-Light'" font-size="2.9469">Shelf 2</tspan><tspan x="0.375" y="3.536" fill="#FFFFFF" font-family="'Roboto-Light'" font-size="2.9469">15454</tspan><tspan x="2.825" y="7.073" fill="#FFFFFF" font-family="'Roboto-Light'" font-size="2.9469">21</tspan></text>
	</g>
	<path fill="#FFF100" d="M66.832,12.709"/>
	<rect x="67.004" y="6" fill="#8DC63F" width="18.857" height="18.565"/>
	<g>
		<rect x="71.729" y="10.304" fill="none" width="9.557" height="9.958"/>
		<text transform="matrix(1 0 0 1 72.0498 12.5503)"><tspan x="0" y="0" fill="#FFFFFF" font-family="'Roboto-Light'" font-size="2.9469">Shelf 3</tspan><tspan x="0.376" y="3.536" fill="#FFFFFF" font-family="'Roboto-Light'" font-size="2.9469">15454</tspan><tspan x="0.552" y="7.073" fill="#FFFFFF" font-family="'Roboto-Light'" font-size="2.9469">22, 27</tspan></text>
	</g>
	<rect x="389.563" y="195.291" fill="#8DC63F" width="18.857" height="18.565"/>
	<g>
		<rect x="394.289" y="199.595" fill="none" width="9.557" height="9.958"/>
		<text transform="matrix(1 0 0 1 394.6094 201.8408)"><tspan x="0" y="0" fill="#FFFFFF" font-family="'Roboto-Light'" font-size="2.9469">Shelf 2</tspan><tspan x="0.375" y="3.536" fill="#FFFFFF" font-family="'Roboto-Light'" font-size="2.9469">15454</tspan><tspan x="2.825" y="7.073" fill="#FFFFFF" font-family="'Roboto-Light'" font-size="2.9469">21</tspan></text>
	</g>
	<rect x="389.563" y="215.267" fill="#8DC63F" width="18.857" height="18.565"/>
	<g>
		<rect x="389.845" y="220.054" fill="none" width="17.972" height="9.958"/>
		<text transform="matrix(1 0 0 1 394.3716 222.2998)"><tspan x="0" y="0" fill="#FFFFFF" font-family="'Roboto-Light'" font-size="2.9469">Shelf 3</tspan><tspan x="0.376" y="3.536" fill="#FFFFFF" font-family="'Roboto-Light'" font-size="2.9469">15454</tspan><tspan x="-3.995" y="7.073" fill="#FFFFFF" font-family="'Roboto-Light'" font-size="2.9469">22, 23, 25, 27</tspan></text>
	</g>
	<rect x="208.247" y="277.011" fill="#8DC63F" width="18.857" height="18.565"/>
	<g>
		<rect x="212.973" y="281.315" fill="none" width="9.558" height="9.959"/>
		<text transform="matrix(1 0 0 1 213.293 283.5605)"><tspan x="0" y="0" fill="#FFFFFF" font-family="'Roboto-Light'" font-size="2.9469">Shelf 2</tspan><tspan x="0.376" y="3.536" fill="#FFFFFF" font-family="'Roboto-Light'" font-size="2.9469">15454</tspan><tspan x="2.825" y="7.073" fill="#FFFFFF" font-family="'Roboto-Light'" font-size="2.9469">21</tspan></text>
	</g>
	<rect x="3.04" y="227.601" fill="#8DC63F" width="18.857" height="18.565"/>
	<g>
		<rect x="7.765" y="231.905" fill="none" width="9.557" height="9.958"/>
		<text transform="matrix(1 0 0 1 8.085 234.1509)"><tspan x="0" y="0" fill="#FFFFFF" font-family="'Roboto-Light'" font-size="2.9469">Shelf 2</tspan><tspan x="0.376" y="3.536" fill="#FFFFFF" font-family="'Roboto-Light'" font-size="2.9469">15454</tspan><tspan x="2.825" y="7.073" fill="#FFFFFF" font-family="'Roboto-Light'" font-size="2.9469">21</tspan></text>
	</g>
	<rect x="228.342" y="277.011" fill="#8DC63F" width="18.857" height="18.565"/>
	<g>
		<rect x="228.624" y="281.799" fill="none" width="17.972" height="9.958"/>
		<text transform="matrix(1 0 0 1 233.1514 284.0449)"><tspan x="0" y="0" fill="#FFFFFF" font-family="'Roboto-Light'" font-size="2.9469">Shelf 3</tspan><tspan x="0.375" y="3.536" fill="#FFFFFF" font-family="'Roboto-Light'" font-size="2.9469">15454</tspan><tspan x="-1.722" y="7.073" fill="#FFFFFF" font-family="'Roboto-Light'" font-size="2.9469">22, 24, 26</tspan></text>
	</g>
	<g>
		<text transform="matrix(0.9851 0.1721 -0.1721 0.9851 185.939 56.5054)"><tspan x="0" y="0" fill="#3954A4" font-family="'Roboto-Light'" font-size="2.8527">77.7 </tspan><tspan x="6.118" y="0" fill="#3954A4" font-family="'Roboto-Light'" font-size="2.8527">K</tspan><tspan x="7.908" y="0" fill="#3954A4" font-family="'Roboto-Light'" font-size="2.8527">m</tspan><tspan x="0.481" y="3.423" font-family="'Roboto-Light'" font-size="2.8527">19.4 dB</tspan></text>
	</g>
	<text transform="matrix(-0.0133 0.9999 -0.9999 -0.0133 375.8408 134.0376)"><tspan x="0" y="0" fill="#3954A4" font-family="'Roboto-Light'" font-size="2.8527">0.7 </tspan><tspan x="4.619" y="0" fill="#3954A4" font-family="'Roboto-Light'" font-size="2.8527">K</tspan><tspan x="6.408" y="0" fill="#3954A4" font-family="'Roboto-Light'" font-size="2.8527">m</tspan><tspan x="0.522" y="3.423" font-family="'Roboto-Light'" font-size="2.8527">2.6 dB</tspan></text>
	<g>
		<text transform="matrix(0.9974 -0.0715 0.0715 0.9974 307.2676 256.3345)"><tspan x="0" y="0" fill="#3954A4" font-family="'Roboto-Light'" font-size="2.8527">21.7 </tspan><tspan x="6.118" y="0" fill="#3954A4" font-family="'Roboto-Light'" font-size="2.8527">K</tspan><tspan x="7.908" y="0" fill="#3954A4" font-family="'Roboto-Light'" font-size="2.8527">m</tspan><tspan x="2.403" y="3.423" font-family="'Roboto-Light'" font-size="2.8527">7 dB</tspan></text>
	</g>
	<g>
		<text transform="matrix(1 0 0 1 128.668 263.1567)"><tspan x="0" y="0" fill="#3954A4" font-family="'Roboto-Light'" font-size="2.8527">11.7 </tspan><tspan x="6.118" y="0" fill="#3954A4" font-family="'Roboto-Light'" font-size="2.8527">K</tspan><tspan x="7.907" y="0" fill="#3954A4" font-family="'Roboto-Light'" font-size="2.8527">m</tspan><tspan x="1.271" y="3.423" font-family="'Roboto-Light'" font-size="2.8527">4.6 dB</tspan></text>
	</g>
	<g>
		<text transform="matrix(-0.0868 -0.9962 0.9962 -0.0868 29.4297 135.0332)"><tspan x="0" y="0" fill="#3954A4" font-family="'Roboto-Light'" font-size="2.8527">54.1</tspan><tspan x="5.424" y="0" fill="#3954A4" font-family="'Roboto-Light'" font-size="2.8527">K</tspan><tspan x="7.214" y="0" fill="#3954A4" font-family="'Roboto-Light'" font-size="2.8527">m</tspan><tspan x="1.265" y="3.423" font-family="'Roboto-Light'" font-size="2.8527">15 dB</tspan></text>
	</g>
</g>
</svg>
